<?xml version="1.0" encoding="UTF-8"?> <!-- Generator: Adobe Illustrator 23.0.6, SVG Export Plug-In . SVG Version: 6.00 Build 0) --> <svg xmlns="http://www.w3.org/2000/svg" xmlns:xlink="http://www.w3.org/1999/xlink" id="Layer_1" x="0px" y="0px" viewBox="0 0 100 100" style="enable-background:new 0 0 100 100;" xml:space="preserve"> <style type="text/css"> .st0{fill:#FFFFFF;} .st1{fill:#ED5627;} .st2{fill:#CCCBCB;} </style> <g> <path class="st0" d="M7,57.5C7,70.3,17.4,80.8,29.9,81c11.5,0.2,21.5-8.1,23.4-19.3h-6.1C45.5,69.1,38.7,75,30.4,75 c-9.7,0-17.3-7.8-17.3-17.5c0-9.4,7.9-17.1,17.4-17.1c3,0,5.8,0.8,8.3,2.1v-6.6c-2.4-0.9-5-1.4-7.7-1.5C17.9,33.9,7.1,44.4,7,57.5z "></path> <path class="st0" d="M20.3,57.6c0,5.6,4.4,10.1,10,10.1c4.2,0,7.8-2.5,9.3-6h-5.8c-1,0.8-2.2,1.4-3.5,1.3c-1.3,0-2.5-0.5-3.4-1.3 h-0.7v-0.8c-0.7-0.9-1.1-2-1.1-3.3c0-1.2,0.4-2.3,1.1-3.2v-5.9C22.7,50,20.3,53.5,20.3,57.6z"></path> <path class="st1" d="M29.9,81C17.4,80.8,7,70.3,7,57.5c0.1-13.1,10.9-23.6,24-23.2c2.7,0.1,5.3,0.6,7.7,1.5v-7.9 c-0.2,0.1-0.3,0.2-0.5,0.3c-1.5,0.7-3.2,1.4-4.8,1.8c-1.8,0.5-3.4,0.8-4.9,0.8h-4v-4v-0.9c-7.9,4.6-15.8,9.2-23.7,13.7 C0.2,39.9,0,40.3,0,40.9C0,52,0,63.2,0,74.3c0,0.6,0.2,1,0.7,1.3c9.7,5.6,19.3,11.1,29,16.7c0.5,0.3,0.8,0.3,1.3,0 c9.7-5.6,19.4-11.2,29.1-16.8c0.5-0.3,0.6-0.5,0.6-1.1c0-4.3,0-8.5,0-12.8h-7.4C51.4,72.8,41.5,81.1,29.9,81z"></path> <path class="st1" d="M13,57.4c0,9.8,7.7,17.5,17.3,17.5c8.3,0,15.1-5.8,16.8-13.3h-7.6c-1.6,3.6-5.1,6-9.3,6c-5.6,0-10-4.5-10-10.1 c0-4.1,2.4-7.6,5.9-9.2V47v-4h4h8.5v-0.6c-2.4-1.3-5.2-2.1-8.3-2.1C20.9,40.3,13,48,13,57.4z"></path> <path class="st2" d="M35.7,57.7h30.2V47H54.7V7.4H42.7c-0.3,0.5-1,1.2-2.1,2.2c-1.1,0.9-2.4,1.8-3.8,2.8c-1.5,0.9-3,1.7-4.5,2.4 c-1.5,0.7-2.8,1-3.9,1v11c1.1,0,2.4-0.2,3.8-0.6c1.4-0.4,2.8-0.9,4.2-1.6c1.3-0.6,2.6-1.3,3.7-2.1c1.1-0.7,2-1.5,2.5-2.2V47H30.2 v5.3c0.1,0,0.2,0,0.2,0C33.4,52.3,35.8,54.8,35.7,57.7z"></path> <path class="st0" d="M26.2,60.9v0.8h0.7C26.7,61.4,26.4,61.2,26.2,60.9z"></path> <g> <path class="st1" d="M30.3,65c-1.7,0-3.4-0.7-4.7-1.8c-0.4-0.3-0.7-0.7-1-1.1c-1-1.3-1.5-2.9-1.5-4.5c0-1.6,0.5-3.1,1.5-4.4 c1.4-1.8,3.4-2.8,5.5-2.9c0.1,0,0.2,0,0.3,0c4,0.1,7.3,3.3,7.3,7.2l0,0l0,0.2c0,2.1-1,4.1-2.6,5.5c-1.3,1.2-3,1.8-4.7,1.8L30.3,65 z"></path> <path class="st0" d="M30.4,52.3C30.4,52.3,30.4,52.3,30.4,52.3c3,0.1,5.4,2.5,5.3,5.4c0,0,0,0,0,0c0,1.6-0.8,3-1.9,4 c-0.9,0.8-2.1,1.3-3.4,1.3c0,0-0.1,0-0.1,0c-1.3,0-2.5-0.5-3.4-1.3c-0.3-0.2-0.5-0.5-0.7-0.8c-0.7-0.9-1.1-2-1.1-3.3 c0-1.2,0.4-2.3,1.1-3.2c0.9-1.2,2.4-2,4-2.1C30.3,52.3,30.3,52.3,30.4,52.3 M30.4,48.3c-0.1,0-0.2,0-0.3,0 c-2.8,0.1-5.3,1.4-7.1,3.6c-1.3,1.6-1.9,3.6-1.9,5.6c0,2.1,0.7,4.1,1.9,5.7c0.4,0.5,0.8,1,1.3,1.4c1.7,1.4,3.8,2.3,6,2.3l0.2,0 c2.2,0,4.3-0.8,6-2.3c2-1.8,3.2-4.3,3.3-7l0-0.1l0,0c0-5-4.1-9.2-9.2-9.3L30.4,48.3L30.4,48.3L30.4,48.3z"></path> </g> </g> </svg> 