<?xml version="1.0" encoding="UTF-8"?> <!-- Generator: Adobe Illustrator 23.0.6, SVG Export Plug-In . SVG Version: 6.00 Build 0) --> <svg xmlns="http://www.w3.org/2000/svg" xmlns:xlink="http://www.w3.org/1999/xlink" id="Layer_1" x="0px" y="0px" viewBox="0 0 100 100" style="enable-background:new 0 0 100 100;" xml:space="preserve"> <style type="text/css"> .st0{fill:#FFFFFF;} .st1{fill:#ED5627;} .st2{fill:#CCCBCB;} </style> <g> <path class="st0" d="M20.3,58.2c0,5.6,4.4,10.1,10,10.1c4.3,0,8-2.7,9.5-6.4h-5.5c-1,1.1-2.4,1.8-3.9,1.7c-1.5,0-2.9-0.7-3.9-1.7 h-0.1v-0.1c-0.8-0.9-1.3-2.2-1.3-3.5c0-1.4,0.5-2.6,1.4-3.6c0.1-1.7,0.3-3.2,0.6-4.7c0.1-0.5,0.2-0.9,0.3-1.3 C23.3,49.9,20.3,53.7,20.3,58.2z"></path> <path class="st1" d="M29.9,81.6C17.4,81.4,7,71,7,58.2C7.1,45,17.9,34.6,31,34.9c1.7,0,3.4,0.3,5,0.7c1.8-1.4,3.8-2.8,6.2-4.1l0,0 l0,0c0.4-0.2,0.9-0.5,1.3-0.7c-4.1-2.3-8.1-4.7-12.2-7.1c-0.8-0.4-1.3-0.5-2,0c-9.5,5.5-19.1,11.1-28.7,16.6 C0.2,40.6,0,40.9,0,41.5C0,52.7,0,63.8,0,75c0,0.6,0.2,1,0.7,1.3c9.7,5.6,19.3,11.1,29,16.7c0.5,0.3,0.8,0.3,1.3,0 c9.7-5.6,19.4-11.2,29.1-16.8c0.5-0.3,0.6-0.5,0.6-1.1c0-4.4,0-8.8,0-13.2h-7.3C51.7,73.3,41.6,81.8,29.9,81.6z"></path> <path class="st1" d="M13,58.1c0,9.8,7.7,17.5,17.3,17.5c8.4,0,15.4-6.1,17-13.7h-7.5c-1.5,3.8-5.1,6.4-9.5,6.4 c-5.6,0-10-4.5-10-10.1c0-4.5,3-8.3,7.1-9.6c0.5-2.1,1.3-4,2.3-5.8c0.4-0.6,0.8-1.2,1.2-1.9c-0.1,0-0.3,0-0.4,0 C20.9,40.9,13,48.7,13,58.1z"></path> <path class="st2" d="M35.7,57.9h37.1V47.2H46.1c0.6-0.9,1.4-1.9,2.6-2.9c1.1-1,2.3-1.9,3.7-2.8c1.3-0.9,2.7-1.7,4-2.5 c1.3-0.8,2.6-1.4,3.6-2c1.3-0.7,2.6-1.5,4-2.4c1.4-0.9,2.7-2,3.8-3.2c1.2-1.2,2.1-2.6,2.9-4.2c0.8-1.6,1.1-3.4,1.1-5.5 c0-2.2-0.4-4.2-1.3-6c-0.9-1.8-2.1-3.4-3.7-4.8c-1.6-1.3-3.6-2.3-5.9-3.1c-2.3-0.7-5-1.1-8-1.1c-2.6,0-5.1,0.3-7.4,0.8 c-2.3,0.6-4.4,1.3-6.3,2.1c-1.9,0.9-3.6,1.8-5,2.7c-1.4,1-2.5,1.9-3.3,2.7l7.6,8.7c0.7-0.9,1.5-1.7,2.3-2.5 c0.8-0.8,1.8-1.5,2.8-2.2c1-0.6,2.1-1.2,3.3-1.5c1.2-0.4,2.5-0.6,3.9-0.6c2.6,0,4.7,0.6,6.1,1.9c1.4,1.3,2.1,2.8,2.1,4.5 c0,1.1-0.3,2.1-1,2.9c-0.6,0.9-1.6,1.7-2.8,2.5c-1.2,0.8-2.8,1.7-4.6,2.7c-1.8,1-4,2.1-6.4,3.4c-2.8,1.5-5,3.1-6.8,4.7 c-1.8,1.6-3.2,3.3-4.2,5.1c-1,1.8-1.7,3.8-2.2,5.9c-0.1,0.7-0.2,1.5-0.3,2.2C33.4,53.1,35.5,55.3,35.7,57.9z"></path> <path class="st0" d="M26.4,61.9h0.1c0,0-0.1-0.1-0.1-0.1V61.9z"></path> <g> <path class="st1" d="M30.3,65.6c-2,0-3.9-0.9-5.3-2.4c-0.1-0.1-0.1-0.1-0.2-0.2c-1.1-1.3-1.8-3-1.8-4.8c0-1.8,0.7-3.6,1.9-4.9 c1.4-1.5,3.3-2.4,5.3-2.4l0.2,0c0.1,0,0.2,0,0.3,0c3.7,0.2,6.7,3.2,7,6.8c0,0.2,0,0.4,0,0.6c0,1.8-0.7,3.5-2,4.9 c-1.4,1.5-3.3,2.4-5.3,2.4L30.3,65.6z"></path> <path class="st0" d="M30.3,52.9c0,0,0.1,0,0.1,0c0.1,0,0.2,0,0.2,0c2.7,0.2,4.9,2.3,5.1,5c0,0.1,0,0.3,0,0.4 c0,1.4-0.6,2.6-1.5,3.6c-1,1.1-2.4,1.7-3.8,1.7c0,0-0.1,0-0.1,0c-1.5,0-2.9-0.7-3.9-1.7c0,0-0.1-0.1-0.1-0.1 c-0.8-0.9-1.3-2.2-1.3-3.5c0-1.4,0.5-2.6,1.4-3.6C27.5,53.6,28.8,52.9,30.3,52.9 M30.3,48.9c-2.6,0-5,1.1-6.8,3 c-1.6,1.7-2.4,3.9-2.5,6.3c0,2.2,0.8,4.4,2.2,6.1c0.1,0.1,0.2,0.2,0.3,0.3c1.8,1.9,4.1,3,6.7,3l0.2,0c2.5,0,5-1.1,6.8-3 c1.6-1.7,2.5-4,2.5-6.2c0-0.3,0-0.5,0-0.8c-0.3-4.6-4.1-8.4-8.8-8.7c-0.1,0-0.3,0-0.4,0L30.3,48.9L30.3,48.9z"></path> </g> </g> </svg> 