<?xml version="1.0" encoding="UTF-8"?> <!-- Generator: Adobe Illustrator 23.0.6, SVG Export Plug-In . SVG Version: 6.00 Build 0) --> <svg xmlns="http://www.w3.org/2000/svg" xmlns:xlink="http://www.w3.org/1999/xlink" id="Layer_1" x="0px" y="0px" viewBox="0 0 100 100" style="enable-background:new 0 0 100 100;" xml:space="preserve"> <style type="text/css"> .st0{fill:#FFFFFF;} .st1{fill:#ED5627;} .st2{fill:#CCCBCB;} </style> <g> <path class="st0" d="M20.3,58.5c0,5.6,4.4,10.1,10,10.1c2.8,0,5.3-1.1,7.1-2.9c-0.5-0.2-1-0.4-1.5-0.6c-1.2-0.5-2.3-1.1-3.4-1.7 c-0.7,0.3-1.4,0.5-2.2,0.5c-3-0.1-5.3-2.4-5.3-5.4c0,0,0-0.1,0-0.1c0,0,0,0,0-0.1c0-0.6,0.1-1.1,0.3-1.6l-0.7-0.8l2-2.5l3.9-4.9 c-0.1,0-0.2,0-0.2,0C24.8,48.4,20.3,52.9,20.3,58.5z"></path> <path class="st1" d="M52.1,67.1C48.6,75.9,39.8,82,29.9,81.8C17.4,81.7,7,71.2,7,58.4c0.1-13.1,10.9-23.6,24-23.2 c3.1,0.1,6,0.8,8.6,1.9v-7.3v-1c-2.7-1.6-5.5-3.2-8.2-4.8c-0.8-0.4-1.3-0.5-2,0C19.8,29.5,10.3,35,0.7,40.5C0.2,40.8,0,41.1,0,41.7 C0,52.9,0,64,0,75.2c0,0.6,0.2,1,0.7,1.3c9.7,5.6,19.3,11.1,29,16.7c0.5,0.3,0.8,0.3,1.3,0c9.7-5.6,19.4-11.2,29.1-16.8 c0.5-0.3,0.6-0.5,0.6-1.1c0-3.5,0-7,0-10.5c-1,0.4-2,0.8-3.1,1.2C56,66.6,54.1,66.9,52.1,67.1z"></path> <path class="st1" d="M13,58.3c0,9.8,7.7,17.5,17.3,17.5c6.4,0,11.9-3.5,14.9-8.6c-2.8-0.2-5.5-0.7-7.9-1.6 c-1.8,1.8-4.3,2.9-7.1,2.9c-5.6,0-10-4.5-10-10.1c0-5.6,4.5-10.1,10.1-10.1c0.1,0,0.2,0,0.2,0l2-2.6l2.7-3.9 c-1.6-0.5-3.2-0.7-5-0.7C20.9,41.1,13,48.9,13,58.3z"></path> <g> <path class="st1" d="M30.3,65.8c-4.1-0.1-7.3-3.3-7.2-7.4l0-0.2l4,0.1c0,1.8,1.5,3.3,3.3,3.4c0,0,0,0,0,0c0.4,0,0.8-0.1,1.2-0.2 l1-0.4l1,0.6l3.2,1.9l-3.4,1.6c-0.9,0.4-1.9,0.7-2.9,0.7L30.3,65.8z"></path> <path class="st0" d="M25.1,58.4c0,2.9,2.3,5.3,5.3,5.3c0,0,0.1,0,0.1,0c0.7,0,1.4-0.1,2-0.4c0,0,0.1,0.1,0.1,0.1 c-0.7,0.3-1.4,0.5-2.1,0.5c0,0-0.1,0-0.1,0C27.4,63.8,25.1,61.4,25.1,58.4C25.1,58.4,25.1,58.4,25.1,58.4 M21.1,58.1l0,0.1l0,0.2 c0,5.2,4,9.3,9.2,9.4l0.2,0c1.3,0,2.6-0.3,3.8-0.8l6.8-3.1L34.6,60l-0.1-0.1l-1.8-1.1l-1.9,0.8c-0.1,0.1-0.3,0.1-0.4,0.1 c-0.8,0-1.4-0.6-1.4-1.4l-4.9,0L21.1,58.1L21.1,58.1z"></path> </g> <path class="st2" d="M35.7,58.4c0,0.7-0.2,1.4-0.4,2c0.7,0.4,1.4,0.7,2.2,1.1c3.1,1.3,6.6,1.9,10.6,1.9c3.1,0,6-0.4,8.5-1.1 c2.5-0.8,4.6-1.8,6.4-3.2c1.8-1.4,3.1-3.1,4.1-5.1c1-2,1.5-4.2,1.5-6.7c0-3.7-1-6.8-3-9.3c-2-2.5-4.6-4.1-7.9-4.7 c1.5-0.3,2.8-0.8,4-1.6c1.2-0.8,2.3-1.8,3.2-2.9c0.9-1.2,1.6-2.4,2-3.8c0.5-1.4,0.7-2.9,0.7-4.5c0-2.1-0.4-4-1.3-5.7 c-0.9-1.7-2.1-3.2-3.7-4.4c-1.6-1.2-3.5-2.1-5.7-2.8c-2.2-0.7-4.6-1-7.3-1c-2,0-4,0.2-6,0.6c-1.9,0.4-3.7,0.9-5.4,1.6 c-1.6,0.7-3.1,1.5-4.4,2.5c-1.3,1-2.4,2.1-3.1,3.3l6.6,7.4c1.2-2,2.8-3.5,4.7-4.6c1.9-1.1,4.1-1.6,6.5-1.6c2.4,0,4.3,0.5,5.7,1.6 c1.5,1,2.2,2.6,2.2,4.8c0,2.3-0.9,4.1-2.7,5.5c-1.8,1.4-4.3,2.2-7.5,2.2h-2.4v7.9h2.2c3.9,0,6.9,0.7,8.8,2.2 c1.9,1.5,2.9,3.6,2.9,6.3c0,2.6-0.8,4.6-2.5,5.8c-1.7,1.3-4.1,1.9-7.3,1.9c-2.8,0-5.2-0.5-7.1-1.4c-1.9-0.9-3.5-2.3-4.9-4l-3.9,4.9 C34.1,53.9,35.8,56,35.7,58.4z"></path> <g> <path class="st1" d="M30.3,65.7c-4-0.1-7.1-3.2-7.2-7.2l0,0l0-0.2c0-0.8,0.1-1.5,0.4-2.2c1-3,3.8-5.1,6.9-5.1l0.2,0 c0.7,0,1.4,0.1,2,0.3c3.1,1,5.3,3.9,5.3,7.1c0,0.9-0.2,1.9-0.6,2.8c-0.8,1.8-2.2,3.2-4,4c-0.9,0.4-1.8,0.6-2.8,0.6L30.3,65.7z"></path> <path class="st0" d="M30.3,53c0,0,0.1,0,0.1,0c0.5,0,1,0.1,1.5,0.2c2.2,0.7,3.9,2.8,3.8,5.2c0,0.7-0.2,1.4-0.4,2 c-0.6,1.3-1.6,2.4-2.9,2.9c-0.6,0.3-1.3,0.4-2,0.4c0,0-0.1,0-0.1,0c-2.9-0.1-5.2-2.4-5.3-5.3c0,0,0,0,0-0.1c0-0.6,0.1-1.1,0.3-1.6 C26,54.5,28,53,30.3,53 M30.3,49c-4,0-7.5,2.6-8.8,6.4c-0.3,0.9-0.5,1.9-0.5,2.8l0,0.3l0,0.1c0.2,5,4.2,8.9,9.2,9l0.2,0 c1.2,0,2.4-0.2,3.5-0.7c2.2-1,4.1-2.8,5-5c0.5-1.1,0.7-2.3,0.7-3.5c0-4.1-2.7-7.8-6.7-9c-0.8-0.3-1.7-0.4-2.6-0.4L30.3,49L30.3,49 z"></path> </g> </g> </svg> 