<?xml version="1.0" encoding="UTF-8"?> <!-- Generator: Adobe Illustrator 23.0.6, SVG Export Plug-In . SVG Version: 6.00 Build 0) --> <svg xmlns="http://www.w3.org/2000/svg" xmlns:xlink="http://www.w3.org/1999/xlink" id="Layer_1" x="0px" y="0px" viewBox="0 0 100 100" style="enable-background:new 0 0 100 100;" xml:space="preserve"> <style type="text/css"> .st0{fill:#FFFFFF;} .st1{fill:#ED5627;} .st2{fill:#CCCBCB;} </style> <g> <path class="st0" d="M20.3,58.2c0,5.6,4.4,10.1,10,10.1c5.3,0,9.7-4,10.1-9.2h-4.8c-0.5,2.5-2.7,4.5-5.3,4.5 c-3-0.1-5.3-2.4-5.3-5.4c0,0,0-0.1,0-0.1c0,0,0,0,0-0.1c0-1.3,0.5-2.5,1.3-3.4V49C22.8,50.5,20.3,54,20.3,58.2z"></path> <path class="st1" d="M52.1,72.2v-4v-1.3c-3.5,8.8-12.3,14.8-22.1,14.7C17.4,81.4,7,70.9,7,58.1C7.1,45,17.9,34.5,31,34.9 c0.6,0,1.2,0.1,1.8,0.1l5.6-7.3c-2.3-1.4-4.7-2.7-7-4.1c-0.8-0.4-1.3-0.5-2,0c-9.5,5.5-19.1,11.1-28.7,16.6C0.2,40.5,0,40.9,0,41.5 c0,11.2,0,22.3,0,33.5c0,0.6,0.2,1,0.7,1.3c9.7,5.6,19.3,11.1,29,16.7c0.5,0.3,0.8,0.3,1.3,0c9.7-5.6,19.4-11.2,29.1-16.8 c0.5-0.3,0.6-0.5,0.6-1.1c0-0.9,0-1.9,0-2.8h-4.7H52.1z"></path> <path class="st1" d="M13,58c0,9.8,7.7,17.5,17.3,17.5c9.4,0,16.9-7.5,17.3-16.4h-7.2c-0.5,5.2-4.8,9.2-10.1,9.2 c-5.6,0-10-4.5-10-10.1c0-4.2,2.5-7.7,6.1-9.2v-4.3v-1.4l0.8-1.1l0.9-1.1C19.7,42.2,13,49.4,13,58z"></path> <g> <path class="st1" d="M30.3,65.6c-4.1-0.1-7.3-3.3-7.2-7.4l0-0.2l4,0.1c0,1.8,1.5,3.3,3.3,3.4c0,0,0,0,0,0c1.5,0,3-1.2,3.3-2.7 l0.3-1.6h4l-0.4,2.4c-0.6,3.5-3.7,6.1-7.2,6.1L30.3,65.6z"></path> <path class="st0" d="M25.1,58.1c0,2.9,2.3,5.3,5.3,5.3c0,0,0.1,0,0.1,0c2.5,0,4.7-1.9,5.2-4.3h0c-0.5,2.5-2.7,4.5-5.2,4.5 c0,0-0.1,0-0.1,0C27.4,63.5,25.1,61.1,25.1,58.1C25.1,58.1,25.1,58.1,25.1,58.1 M40.4,55.1h-4.8h-3.2l-0.7,3.2 c-0.1,0.6-0.7,1.1-1.3,1.1c-0.8,0-1.4-0.6-1.4-1.4l-4.9,0l-3.1-0.2l0,0.1l0,0.2c0,5.2,4,9.3,9.2,9.4l0.2,0c4.4,0,8.3-3.3,9.1-7.7 L40.4,55.1L40.4,55.1z"></path> </g> <path class="st2" d="M34.8,55.1h21.2v13.1h11.8V55.1h7.7V44.6h-7.7V6.8h-8L30.4,44.7v8.1c0,0,0,0,0.1,0 C32.3,52.8,33.9,53.7,34.8,55.1z M57.4,24.7v19.9H42.2L57.4,24.7z"></path> <g> <path class="st1" d="M30.3,65.4c-4-0.1-7.1-3.2-7.2-7.2l0,0l0-0.2c0-1.7,0.6-3.4,1.8-4.7c1.4-1.6,3.4-2.6,5.5-2.6l0.2,0 c2.4,0.1,4.6,1.3,6,3.3c0.8,1.2,1.3,2.7,1.3,4.1c0,0.5-0.1,0.9-0.2,1.4c-0.7,3.4-3.8,5.9-7.1,5.9L30.3,65.4z"></path> <path class="st0" d="M30.4,52.7C30.4,52.7,30.4,52.7,30.4,52.7c1.8,0,3.4,1,4.4,2.4c0.6,0.9,0.9,1.9,0.9,3c0,0.3,0,0.7-0.1,1 c-0.5,2.4-2.7,4.3-5.2,4.3c0,0-0.1,0-0.1,0c-2.9-0.1-5.2-2.4-5.3-5.3c0,0,0,0,0-0.1c0-1.3,0.5-2.5,1.3-3.4c1-1.1,2.4-1.9,4-1.9 C30.3,52.7,30.4,52.7,30.4,52.7C30.4,52.7,30.4,52.7,30.4,52.7C30.4,52.7,30.4,52.7,30.4,52.7 M30.4,48.7h-0.1l0,0 c-2.7,0-5.2,1.2-7,3.3c-1.4,1.7-2.2,3.8-2.2,6l0,0.3l0,0.1c0.2,5,4.2,8.9,9.2,9l0.2,0c4.3,0,8.2-3.1,9.1-7.5 c0.1-0.6,0.2-1.2,0.2-1.8c0-1.9-0.5-3.7-1.6-5.3C36.4,50.3,33.6,48.8,30.4,48.7L30.4,48.7L30.4,48.7L30.4,48.7z"></path> </g> </g> </svg> 