<?xml version="1.0" encoding="UTF-8"?> <!-- Generator: Adobe Illustrator 23.0.6, SVG Export Plug-In . SVG Version: 6.00 Build 0) --> <svg xmlns="http://www.w3.org/2000/svg" xmlns:xlink="http://www.w3.org/1999/xlink" id="Layer_1" x="0px" y="0px" viewBox="0 0 100 100" style="enable-background:new 0 0 100 100;" xml:space="preserve"> <style type="text/css"> .st0{fill:#FFFFFF;} .st1{fill:#ED5627;} .st2{fill:#CCCBCB;} </style> <g> <path class="st0" d="M20.3,58.3c0,5.6,4.4,10.1,10,10.1c1.5,0,2.9-0.3,4.2-0.9c-1.7-1.1-3.2-2.4-4.5-3.9c-2.8-0.2-5-2.5-5-5.4 c0,0,0-0.1,0-0.1c0,0,0,0,0-0.1c0-2.8,2.2-5.1,4.8-5.3l3.9-4c-1.1-0.4-2.2-0.6-3.4-0.6C24.8,48.2,20.3,52.7,20.3,58.3z"></path> <path class="st1" d="M50.5,72.2c-0.4,0-0.9,0-1.3,0c-4.4,5.9-11.5,9.7-19.3,9.6C17.4,81.5,7,71.1,7,58.2 C7.1,45.6,17.2,35.4,29.7,35c0.3-1.5,0.6-3.1,0.9-4.9c0.4-2,0.8-4.1,1.2-6.1c-0.1-0.1-0.2-0.1-0.4-0.2c-0.8-0.4-1.3-0.5-2,0 c-9.5,5.5-19.1,11.1-28.7,16.6C0.2,40.7,0,41,0,41.6C0,52.7,0,63.9,0,75c0,0.6,0.2,1,0.7,1.3c9.7,5.6,19.3,11.1,29,16.7 c0.5,0.3,0.8,0.3,1.3,0c9.7-5.6,19.4-11.2,29.1-16.8c0.5-0.3,0.6-0.5,0.6-1.1c0-1.6,0-3.2,0-4.8c0,0-0.1,0-0.1,0 C57.6,71.6,54.1,72.2,50.5,72.2z"></path> <path class="st1" d="M13,58.1c0,9.8,7.7,17.5,17.3,17.5c4.6,0,8.7-1.8,11.8-4.6c-1.9-0.5-3.7-1.2-5.4-2.2c-0.8-0.4-1.5-0.9-2.2-1.4 c-1.3,0.6-2.7,0.9-4.2,0.9c-5.6,0-10-4.5-10-10.1c0-5.6,4.5-10.1,10.1-10.1c1.2,0,2.3,0.2,3.4,0.6l0.6-0.6l1.4-1.5h-3.6h-3.9v-3.9 c0-0.4,0-0.7,0.2-1.7C19.8,42.1,13,49.4,13,58.1z"></path> <g> <path class="st1" d="M29.9,65.7c-3.9-0.3-6.8-3.5-6.8-7.4l0-0.2l4,0.1c0,1.7,1.3,3.1,3,3.3l0.8,0.1l0.5,0.6l0.1,0.1l3.3,3.7 L29.9,65.7z"></path> <path class="st0" d="M25.1,58.2c0,2.8,2.1,5,4.8,5.3c0,0.1,0.1,0.1,0.1,0.2C27.2,63.5,25.1,61.2,25.1,58.2 C25.1,58.3,25.1,58.2,25.1,58.2 M21.1,57.9l0,0.1l0,0.2c0,5,3.7,9,8.7,9.4l9.9,0.8l-6.6-7.4C33,61,33,60.9,32.9,60.9l-1-1.2 l-1.6-0.2c-0.7-0.1-1.2-0.6-1.2-1.3l-4.9,0L21.1,57.9L21.1,57.9z"></path> </g> <path class="st2" d="M35.7,58.2c0,1.5-0.7,2.9-1.8,3.9c1.3,1.3,2.9,2.4,4.6,3.3c3.5,1.9,7.5,2.8,11.9,2.8c3.2,0,6.2-0.5,8.9-1.5 c2.7-1,5.1-2.4,7.1-4.2c2-1.8,3.5-3.9,4.7-6.5c1.1-2.5,1.7-5.3,1.7-8.4c0-2.9-0.5-5.6-1.5-8c-1-2.4-2.4-4.4-4.1-6.2 c-1.8-1.7-3.9-3-6.3-4c-2.5-0.9-5.1-1.4-8-1.4c-1.9,0-3.6,0.2-4.9,0.7c-1.3,0.5-2.4,1.1-3,1.8l2.5-13.6h21.6V6.7H39.1 c-1.3,6.5-2.4,12.4-3.4,17.6c-0.5,2.2-0.9,4.4-1.3,6.5c-0.4,2.1-0.8,4.1-1.1,5.8c-0.3,1.7-0.6,3.2-0.9,4.3 c-0.2,1.1-0.3,1.8-0.3,1.9h10c1-1.5,2.3-2.7,3.9-3.5c1.6-0.9,3.4-1.3,5.3-1.3c2.9,0,5.2,0.9,7.1,2.7c1.9,1.8,2.8,4.2,2.8,7.2 c0,3.1-1,5.5-3,7.4c-2,1.9-4.5,2.8-7.6,2.8c-2.6,0-5-0.7-7.4-2c-2.4-1.3-4.4-3.1-6-5.3l-3.2,3.3C35.1,55.2,35.8,56.7,35.7,58.2z"></path> <g> <path class="st1" d="M30.3,65.6c-0.2,0-0.4,0-0.5-0.1c-3.8-0.4-6.6-3.4-6.7-7.1l0,0l0-0.2c0-3.8,2.9-7,6.6-7.3c0.2,0,0.4,0,0.6,0 l0.2,0c1.8,0,3.5,0.7,4.8,1.9c1.6,1.4,2.5,3.4,2.5,5.5c0,2-0.9,4-2.4,5.4c-1.4,1.3-3.1,1.9-4.9,1.9L30.3,65.6z"></path> <path class="st0" d="M30.3,52.8c0,0,0.1,0,0.1,0c1.3,0,2.6,0.6,3.5,1.4c1.1,1,1.8,2.4,1.8,4c0,1.5-0.7,2.9-1.8,3.9 c-0.9,0.9-2.2,1.4-3.5,1.4c0,0-0.1,0-0.1,0c-0.2,0-0.3,0-0.4-0.1c-2.7-0.3-4.8-2.5-4.8-5.3c0,0,0,0,0-0.1c0-2.8,2.2-5.1,4.8-5.3 C30,52.8,30.2,52.8,30.3,52.8 M30.3,48.8c-0.3,0-0.5,0-0.8,0c-4.7,0.4-8.4,4.5-8.5,9.3l0,0.3l0,0.1c0.2,4.6,3.7,8.5,8.4,9 c0.2,0,0.5,0.1,0.8,0.1l0.2,0c2.3,0,4.5-0.9,6.2-2.5c1.9-1.8,3-4.3,3.1-6.8c0-2.6-1.1-5.2-3.1-7c-1.7-1.5-3.9-2.4-6.1-2.4 L30.3,48.8L30.3,48.8z"></path> </g> </g> </svg> 