<?xml version="1.0" encoding="UTF-8"?> <!-- Generator: Adobe Illustrator 23.0.6, SVG Export Plug-In . SVG Version: 6.00 Build 0) --> <svg xmlns="http://www.w3.org/2000/svg" xmlns:xlink="http://www.w3.org/1999/xlink" id="Layer_1" x="0px" y="0px" viewBox="0 0 100 100" style="enable-background:new 0 0 100 100;" xml:space="preserve"> <style type="text/css"> .st0{fill:#FFFFFF;} .st1{fill:#ED5627;} .st2{fill:#CCCBCB;} </style> <g> <path class="st0" d="M20.3,57.3c0,5.6,4.4,10.1,10,10.1c3.5,0,6.6-1.7,8.4-4.4c-1.4-0.8-2.6-1.8-3.8-3c-1,1.6-2.7,2.7-4.6,2.6 c-3-0.1-5.3-2.4-5.3-5.4c0,0,0-0.1,0-0.1c0,0,0,0,0-0.1c0-2.7,2-4.9,4.6-5.3c-0.3-0.9-0.7-1.7-0.9-2.7c-0.2-0.6-0.3-1.2-0.4-1.7 C23.7,48.4,20.3,52.5,20.3,57.3z"></path> <path class="st1" d="M52,66.2c-3.6,8.6-12.2,14.6-22,14.5C17.4,80.5,7,70.1,7,57.2c0-11.8,8.9-21.5,20.3-23 c0.2-3.8,0.7-7.3,1.5-10.4c0.1-0.3,0.1-0.5,0.2-0.8c-9.4,5.5-18.8,10.9-28.3,16.3C0.2,39.7,0,40,0,40.6c0,11.2,0,22.3,0,33.5 c0,0.6,0.2,1,0.7,1.3c9.7,5.6,19.3,11.1,29,16.7c0.5,0.3,0.8,0.3,1.3,0c9.7-5.6,19.4-11.2,29.1-16.8c0.5-0.3,0.6-0.5,0.6-1.1 c0-3.3,0-6.7,0-10c-0.2,0.1-0.5,0.2-0.7,0.3C57.5,65.6,54.8,66.1,52,66.2z"></path> <path class="st1" d="M13,57.1c0,9.8,7.7,17.5,17.3,17.5c6.6,0,12.2-3.7,15.2-8.9c-1.6-0.3-3.1-0.8-4.5-1.5 c-0.8-0.4-1.6-0.8-2.3-1.2c-1.8,2.6-4.9,4.4-8.4,4.4c-5.6,0-10-4.5-10-10.1c0-4.9,3.4-8.9,8-9.8c-0.5-2.2-0.9-4.6-1-7.2 C19.2,41.8,13,48.8,13,57.1z"></path> <g> <path class="st1" d="M30.3,64.7c-4.1-0.1-7.3-3.3-7.2-7.4l0-0.2l4,0.1c0,1.8,1.5,3.3,3.3,3.4c0,0,0,0,0,0c1.1,0,2.2-0.6,2.8-1.6 l1.4-2.1l2.8,2.9l-0.7,1.4c-1.3,2.2-3.7,3.6-6.2,3.6L30.3,64.7z"></path> <path class="st0" d="M25.1,57.2c0,2.9,2.3,5.3,5.3,5.3c0,0,0.1,0,0.1,0c1.8,0,3.5-1,4.5-2.5c0,0,0,0,0.1,0.1 c-0.9,1.6-2.6,2.6-4.5,2.6c0,0-0.1,0-0.1,0C27.4,62.7,25.1,60.3,25.1,57.2C25.1,57.3,25.1,57.3,25.1,57.2 M34.2,53.7l-2.7,4.2 c-0.3,0.4-0.7,0.7-1.1,0.7c-0.8,0-1.4-0.6-1.4-1.4l-4.9,0L21.1,57l0,0.1l0,0.2c0,5.2,4,9.3,9.2,9.4l0.2,0c3.2,0,6.2-1.7,7.9-4.6 l1.6-2.7l-2.2-2.2l-0.1-0.1L34.2,53.7L34.2,53.7z"></path> </g> <path class="st2" d="M42.7,60.6c2.4,1.1,5.2,1.7,8.2,1.7c2.8,0,5.3-0.5,7.7-1.4c2.4-1,4.5-2.3,6.2-4c1.8-1.7,3.1-3.7,4.1-5.9 c1-2.3,1.5-4.7,1.5-7.3c0-2.5-0.5-4.9-1.4-7c-1-2.2-2.3-4.1-4-5.7c-1.7-1.6-3.7-2.9-6-3.8c-2.3-0.9-4.7-1.4-7.3-1.4 c-2.6,0-4.8,0.5-6.7,1.6c-1.9,1.1-3.4,2.5-4.5,4.3c0.1-4.9,1.2-8.6,3.2-11.3c2-2.7,4.7-4,8.1-4c2.2,0,4.3,0.5,6.2,1.6 c1.9,1.1,3.5,2.5,4.7,4.4l5.8-6.3c-2-2.7-4.4-4.8-7.2-6.3c-2.8-1.5-5.9-2.2-9.3-2.2c-3.2,0-6,0.7-8.6,2c-2.6,1.3-4.7,3.2-6.6,5.8 c-1.8,2.5-3.2,5.7-4.1,9.4c-1,3.7-1.4,8-1.4,12.9c0,3.9,0.5,7.3,1.4,10.4c0.9,3,2.2,5.6,3.9,7.7C38.2,57.9,40.3,59.5,42.7,60.6z M41.1,43.7c0-1.4,0.3-2.6,0.8-3.8c0.5-1.2,1.2-2.2,2.1-3.1c0.9-0.9,2-1.6,3.2-2.1c1.2-0.5,2.5-0.8,3.8-0.8c1.4,0,2.6,0.3,3.8,0.8 c1.2,0.5,2.2,1.2,3.1,2.1c0.9,0.9,1.6,1.9,2.1,3.1c0.5,1.2,0.8,2.4,0.8,3.8s-0.3,2.6-0.8,3.9c-0.5,1.2-1.2,2.3-2.1,3.2 c-0.9,0.9-2,1.7-3.2,2.2c-1.2,0.5-2.5,0.8-3.8,0.8c-1.4,0-2.6-0.3-3.8-0.8c-1.2-0.6-2.2-1.3-3.1-2.2c-0.9-0.9-1.6-2-2.1-3.2 C41.3,46.3,41.1,45,41.1,43.7z"></path> <g> <path class="st1" d="M30.3,64.6c-4-0.1-7.1-3.2-7.2-7.2l0,0l0-0.2c0-3.7,2.7-6.8,6.3-7.2c0.3,0,0.6-0.1,0.9-0.1l0.1,0 c4,0.1,7.3,3.4,7.3,7.4c0,1.3-0.4,2.7-1.2,3.8c-1.4,2.1-3.7,3.5-6.1,3.5L30.3,64.6z"></path> <path class="st0" d="M30.3,51.9C30.4,51.9,30.4,51.9,30.3,51.9c3,0.1,5.4,2.5,5.4,5.4c0,1-0.3,2-0.8,2.8c-1,1.5-2.6,2.5-4.5,2.5 c0,0-0.1,0-0.1,0c-2.9-0.1-5.2-2.4-5.3-5.3c0,0,0,0,0-0.1c0-2.7,2-4.9,4.6-5.3C29.9,51.9,30.1,51.9,30.3,51.9 M30.3,47.9 c-0.4,0-0.8,0-1.2,0.1c-4.6,0.6-8,4.6-8,9.2l0,0.3l0,0.1c0.2,5,4.2,8.9,9.2,9l0.2,0c3.1,0,6.1-1.7,7.8-4.4 c0.9-1.5,1.4-3.2,1.5-4.9c0.1-5.1-4.1-9.3-9.2-9.4L30.3,47.9L30.3,47.9z"></path> </g> </g> </svg> 