<?xml version="1.0" encoding="UTF-8"?> <!-- Generator: Adobe Illustrator 23.0.6, SVG Export Plug-In . SVG Version: 6.00 Build 0) --> <svg xmlns="http://www.w3.org/2000/svg" xmlns:xlink="http://www.w3.org/1999/xlink" id="Layer_1" x="0px" y="0px" viewBox="0 0 130 100" style="enable-background:new 0 0 130 100;" xml:space="preserve"> <style type="text/css"> .st0{fill:#C3DC80;stroke:#231F20;stroke-width:3.5;stroke-linecap:round;stroke-linejoin:round;stroke-miterlimit:10;} .st1{fill:#FFFFFF;stroke:#192B54;stroke-width:3.5;stroke-linecap:round;stroke-linejoin:round;stroke-miterlimit:10;} .st2{fill:#ED5627;stroke:#192B54;stroke-width:3.5;stroke-linecap:round;stroke-linejoin:round;stroke-miterlimit:10;} </style> <path class="st0" d="M112.4,50.5c2.6,3.9,0.2,5.3,0.2,5.3s1.5,1.5,0.3,2c-1.2,0.5-3.8,2.3-4.5,2.7c-0.8,0.5-1.1,2.7-1.1,2.7 c-1.8,1.4-4.2,4.7-4.2,6.6s3.2,6.5,3.3,7.7c0.2,1.2,2,3.9,2,3.9v4.4l-2,0.8c0,0-0.8-1.5-1.4-1.7c-0.6-0.2-4.4-5-4.4-5v-3.6 c0,0-3.5-3-3.9-3S94.9,75,94.2,75s-3.8-1.7-4.7-1.7s-2.7,0.3-3.2,0.3s-3.3,1.1-3,2.4c0.3,1.4-3.5,2.7-5.4,0.5h-3.8h-2.3l-8.7,5.9 c-0.2,0.6,0,5.3,0,5.3l-5-2.3c-0.2-0.8-3-7.1-3-7.1l-2.4-2.4h-3c0,0,0.6,2-1.8,1.5c-2.4-0.5-3.5-4.2-3.8-4.8 c-0.3-0.6-3.9-3.8-3.9-3.8l-3.6-0.2l-0.6,1.5c0,0-5.9-1.2-7.1-1.5c-1.2-0.3-8-4.5-8-4.5v-1.1c0,0-5.1,0-5.6,0 c-0.5,0-0.5-1.8-0.6-2.7c-0.2-0.9-5.3-5-6.2-5.3c0.3-1.7-1.7-6-1.7-6s1.5-0.8,0.5-1.7c-1.1-0.9-0.3-2.7-0.8-3.2 c-0.5-0.5,0.2-1.5-0.9-2.6c-1.1-1.1,0.3-3-0.2-3.9c-0.5-0.9-0.3-2.3,0.6-3.6c0.9-1.4,0-3.5,0.3-4.7c0.3-1.2,3.5-6.5,4.1-8.3 c0.6-1.8,0-8.1,0.6-7.7c0.6,0.5,3.9,2.4,3.9,2.4v-2.7c0,0,36.8,9.2,53.8,6.6l0.8,1.4c0,0,5.9,0.9,6,1.4c0.2,0.5,3.6-0.3,4.1,0.2 c0,0-4.2,2.1-4.7,3.6s2-0.2,2-0.2l0.6,0.9c0,0,4.1-2.9,5-3.5c0.9-0.6-0.8,2.1-0.8,2.1s2.1,0.5,2.4,0.9c0.3,0.5,4.8-1.1,4.8-1.1 l2,0.5v1.5h-3c0,0-3.5,0-3.5,1.2s0,11,0,11s1.2,1.2,1.8,0.5c0.6-0.8,1.1-2.9,0.5-5c-0.6-2.1,1.7-6.9,2.7-6.9c1.1,0,3.6,1.7,3.5,3.2 c-0.2,1.5-1.2,2.3-0.6,2.7c0.6,0.5,1.1-1.2,1.5-1.2c0.5,0,0.9,2.4,0.9,3.2c0,0.8-1.4,2.7-0.9,3.3c0.5,0.6,3.2,1.4,8.7-4.1 c0.8-0.6-0.6-1.2-0.6-1.2s1.8-1.4,2.3-1.4c0.5,0,2.3,0.3,2.9-0.6c0.6-0.9,0.6-1.7,0.2-2c-0.5-0.3,2.3-3.5,2.7-3.5 c0.5,0,7.8-1.7,7.8-2.3s0-4.1,0-4.7c0-0.6,2.1-2.6,3.6-2.7c1.5-0.2,1.8,3.5,2.7,4.1c0.9,0.6,3,2.9-1.7,4.5c-0.3,1.4-1.7,2.3-2.1,2.4 c-0.5,0.2-0.6,3.6,0.2,4.7c0.8,1.1,1.7,0.9,1.7,0.9s-3.9,2.7-4.1,3.3c-0.2,0.6-3.6,2.1-3.6,2.7c0,0.6-0.5,3.5-0.8,5 C113.4,46.3,113.6,49,112.4,50.5z"></path> <ellipse class="st1" cx="60.2" cy="50.5" rx="25.3" ry="10"></ellipse> <path class="st2" d="M60.2,13.3c-7,0-12.7,5.7-12.7,12.7c0,9,12.7,25.4,12.7,25.4S72.9,35,72.9,26C72.9,19,67.2,13.3,60.2,13.3z M60.2,31.7c-3.1,0-5.7-2.6-5.7-5.7c0-3.1,2.6-5.7,5.7-5.7c3.1,0,5.7,2.6,5.7,5.7C65.9,29.2,63.3,31.7,60.2,31.7z"></path> </svg> 