<?xml version="1.0" encoding="UTF-8"?> <!-- Generator: Adobe Illustrator 23.0.6, SVG Export Plug-In . SVG Version: 6.00 Build 0) --> <svg xmlns="http://www.w3.org/2000/svg" xmlns:xlink="http://www.w3.org/1999/xlink" id="Layer_1" x="0px" y="0px" viewBox="0 0 130 100" style="enable-background:new 0 0 130 100;" xml:space="preserve"> <style type="text/css"> .st0{fill:#32A849;stroke:#231F20;stroke-width:3.5;stroke-linecap:round;stroke-linejoin:round;stroke-miterlimit:10;} .st1{fill:#C3DC80;stroke:#231F20;stroke-width:3.5;stroke-linecap:round;stroke-linejoin:round;stroke-miterlimit:10;} .st2{fill:#FFFFFF;} .st3{fill:#ED5627;stroke:#192B54;stroke-width:3.5;stroke-linecap:round;stroke-linejoin:round;stroke-miterlimit:10;} </style> <g> <g> <g> <polygon class="st0" points="27.5,37.9 2.9,87.7 34,71 46.3,29.5 "></polygon> <polygon class="st1" points="46.3,29.5 34,71 65,87.7 65,37.9 "></polygon> <polygon class="st1" points="102.5,37.9 83.7,29.5 96,71 127.1,87.7 "></polygon> <polygon class="st0" points="65,37.9 65,87.7 96,71 83.7,29.5 "></polygon> </g> </g> <path class="st2" d="M54.5,35.2c-4.2,0-7.6-3.4-7.6-7.6c0-4.2,3.4-7.6,7.6-7.6c4.2,0,7.6,3.4,7.6,7.6C62,31.8,58.6,35.2,54.5,35.2z "></path> <path class="st3" d="M54.5,12.3c-8.4,0-15.2,6.8-15.2,15.2c0,10.8,15.2,30.4,15.2,30.4s15.2-19.6,15.2-30.4 C69.7,19.1,62.9,12.3,54.5,12.3z M54.5,35.2c-4.2,0-7.6-3.4-7.6-7.6c0-4.2,3.4-7.6,7.6-7.6c4.2,0,7.6,3.4,7.6,7.6 C62,31.8,58.6,35.2,54.5,35.2z"></path> </g> </svg> 