<?xml version="1.0" encoding="UTF-8"?> <!-- Generator: Adobe Illustrator 23.0.6, SVG Export Plug-In . SVG Version: 6.00 Build 0) --> <svg xmlns="http://www.w3.org/2000/svg" xmlns:xlink="http://www.w3.org/1999/xlink" id="Layer_1" x="0px" y="0px" viewBox="0 0 130 100" style="enable-background:new 0 0 130 100;" xml:space="preserve"> <style type="text/css"> .st0{fill:none;stroke:#C4DC80;stroke-width:3.5;stroke-linecap:round;stroke-miterlimit:10;} .st1{fill:#ED5627;stroke:#192B54;stroke-width:3.5;stroke-linecap:round;stroke-linejoin:round;stroke-miterlimit:10;} </style> <g> <path class="st0" d="M66.4,24c-1-0.1-1.9-0.1-2.9-0.1c-17.7,0-32.1,14.4-32.1,32.1S45.8,88,63.5,88c17.7,0,32.1-14.4,32.1-32.1 c0-1.2-0.1-2.3-0.2-3.4"></path> <path class="st0" d="M80.1,54.5c0,0.5,0,0.9,0,1.4c0,17.7-7.5,32.1-16.7,32.1c-9.2,0-16.7-14.4-16.7-32.1s7.5-32.1,16.7-32.1 c1,0,1.9,0.2,2.8,0.5"></path> <line class="st0" x1="32.7" y1="64.9" x2="94.3" y2="64.9"></line> <line class="st0" x1="32.7" y1="46.9" x2="73.2" y2="46.9"></line> <line class="st0" x1="63.5" y1="88" x2="63.5" y2="31.1"></line> <path class="st1" d="M85.9,12c-7,0-12.7,5.7-12.7,12.7c0,9,12.7,25.4,12.7,25.4s12.7-16.4,12.7-25.4C98.6,17.7,92.9,12,85.9,12z M85.8,31.1c-3.5,0-6.3-2.8-6.3-6.3c0-3.5,2.8-6.3,6.3-6.3c3.5,0,6.3,2.8,6.3,6.3C92.2,28.3,89.3,31.1,85.8,31.1z"></path> </g> </svg> 